<?xml version="1.0" standalone="no"?>
<!DOCTYPE svg PUBLIC "-//W3C//DTD SVG 20010904//EN"
 "http://www.w3.org/TR/2001/REC-SVG-20010904/DTD/svg10.dtd">
<svg version="1.0" xmlns="http://www.w3.org/2000/svg"
 width="434.000000pt" height="897.000000pt" viewBox="0 0 434.000000 897.000000"
 preserveAspectRatio="xMidYMid meet">

<g transform="translate(0.000000,897.000000) scale(0.10000,-0.100000)"
fill="#000000" stroke="none">
<path d="M1943 8514 c-3 -8 -3 -41 0 -72 3 -31 11 -106 17 -167 17 -161 26
-305 20 -305 -3 0 -4 -19 -3 -42 l2 -43 -14 45 c-14 45 -14 44 -9 -45 3 -49
12 -142 21 -205 8 -63 19 -248 24 -410 6 -162 11 -311 13 -330 2 -19 7 -125
10 -235 4 -110 11 -237 17 -282 5 -46 9 -149 9 -230 0 -82 2 -164 4 -183 3
-19 5 -86 6 -148 2 -106 4 -114 24 -124 19 -8 22 -17 21 -51 -3 -56 16 -190
28 -198 5 -3 1 -13 -8 -23 -9 -9 -13 -16 -8 -16 4 0 23 17 41 37 l33 38 -35
-54 c-24 -35 -36 -65 -36 -88 0 -20 4 -32 10 -28 6 3 10 16 10 28 0 56 81 126
148 127 32 0 31 -54 -2 -85 -14 -13 -27 -21 -30 -18 -3 3 -8 -8 -12 -23 -4
-16 -16 -39 -27 -52 l-21 -22 25 2 c20 3 24 -1 22 -22 -2 -23 -2 -23 6 -5 5
11 10 34 10 50 1 18 9 35 20 42 17 10 20 9 24 -15 3 -15 0 -34 -8 -42 -7 -8
-16 -26 -19 -40 -6 -21 -5 -22 4 -7 15 23 25 22 37 -5 9 -19 10 -16 6 18 -3
25 -1 44 6 48 6 4 11 16 11 27 0 11 -4 18 -9 14 -17 -10 1 69 20 89 18 20 19
20 40 0 53 -47 66 -151 25 -186 -15 -12 -17 -17 -7 -18 10 0 7 -8 -9 -25 -24
-25 -50 -33 -50 -15 0 12 -49 3 -64 -11 -6 -5 -24 -9 -42 -9 -24 0 -41 9 -65
35 -33 35 -49 43 -49 26 0 -5 9 -13 21 -16 13 -4 18 -12 15 -21 -3 -8 -2 -13
2 -10 5 3 16 -4 25 -15 14 -16 14 -19 2 -19 -8 0 -15 4 -15 9 0 6 -9 9 -21 8
-17 -1 -20 -6 -15 -32 3 -16 6 -76 8 -132 1 -56 6 -97 10 -90 5 8 8 4 8 -10 0
-13 5 -22 12 -20 14 3 33 -76 19 -81 -10 -3 -4 -76 9 -107 4 -11 11 -28 14
-38 3 -11 11 -15 18 -11 8 5 9 2 5 -9 -4 -11 -2 -14 7 -11 17 6 31 -12 16 -21
-5 -3 -10 -12 -10 -18 0 -7 4 -6 11 3 9 12 10 11 6 -8 -3 -12 -1 -20 3 -17 5
3 12 -4 15 -16 10 -31 49 -75 110 -124 l20 -17 -20 7 c-11 4 -26 9 -34 12 -10
5 -12 0 -7 -15 4 -11 2 -23 -3 -27 -7 -4 -8 1 -4 11 4 11 2 15 -4 11 -6 -4
-23 9 -37 28 -17 22 -21 32 -11 29 28 -11 16 10 -33 56 -54 51 -135 197 -152
275 -6 27 -17 139 -25 249 -8 111 -17 224 -20 251 -20 182 -47 686 -50 930 -3
160 -7 310 -9 335 -2 25 -7 83 -11 130 -4 47 -10 112 -15 145 l-7 60 -3 -60
c-2 -49 -4 -55 -11 -35 -22 64 6 -486 81 -1560 38 -557 38 -547 50 -570 9 -16
8 -22 -5 -26 -8 -4 -15 -18 -15 -33 0 -28 12 -38 75 -62 17 -6 25 -13 18 -16
-6 -2 -27 3 -47 11 -26 11 -36 12 -37 3 0 -7 0 -55 1 -107 2 -171 -50 -423
-145 -704 -130 -385 -249 -582 -397 -656 -69 -34 -132 -39 -273 -19 -90 13
-144 3 -188 -32 -72 -56 -173 -366 -184 -564 -7 -120 13 -242 53 -323 14 -30
53 -83 86 -118 99 -106 217 -165 395 -199 81 -16 104 -16 184 -5 50 6 121 21
158 31 107 31 167 22 190 -28 6 -13 11 -73 11 -134 0 -122 15 -179 48 -179 43
0 63 69 65 225 l2 110 65 3 c49 2 70 8 87 24 24 22 43 17 43 -11 0 -86 133
-385 256 -577 95 -150 214 -325 278 -409 94 -124 241 -270 338 -335 81 -55
179 -100 215 -100 16 0 -78 77 -159 132 -116 77 -277 258 -320 358 -9 22 -16
40 -14 40 2 0 20 -27 41 -61 71 -116 190 -243 289 -310 29 -20 92 -51 140 -70
84 -33 93 -42 87 -81 -2 -12 14 -9 27 4 7 7 12 27 12 44 0 25 -8 39 -37 64
-22 17 -46 29 -56 26 -9 -2 -14 0 -11 5 3 6 -5 7 -19 4 -27 -7 -45 0 -119 48
-50 32 -59 41 -31 30 11 -4 14 -3 9 5 -4 7 -14 12 -21 12 -8 0 -24 13 -36 30
-12 16 -27 26 -32 23 -6 -3 -7 -1 -3 6 4 6 0 14 -8 17 -28 11 -115 152 -136
220 -22 72 -25 145 -10 212 11 48 67 170 74 162 2 -3 8 -2 12 2 7 8 -15 12
-48 9 -9 -1 -19 2 -22 8 -14 21 14 57 65 85 30 16 69 46 87 67 19 22 40 39 47
39 8 0 16 8 20 19 3 10 15 27 26 37 l21 19 -18 -40 c-10 -22 -25 -48 -32 -57
-11 -13 -12 -21 -4 -31 9 -10 8 -17 -1 -28 -6 -8 7 4 31 26 23 21 42 48 42 58
0 10 15 46 34 80 85 152 112 303 96 524 -13 175 -25 230 -51 238 -25 8 -59 -3
-54 -18 2 -7 6 -28 9 -47 5 -32 4 -33 -9 -16 -8 10 -12 22 -10 27 3 4 -7 17
-21 28 -15 12 -23 21 -19 21 4 0 1 8 -6 17 -12 15 -12 16 3 10 10 -3 34 1 54
9 35 15 39 14 63 -4 57 -42 75 -130 68 -337 -3 -118 -10 -173 -31 -258 -15
-60 -26 -111 -23 -113 2 -3 16 37 30 88 34 120 51 288 45 443 -6 142 -19 175
-89 214 -34 19 -64 25 -158 31 -79 6 -134 15 -173 30 -66 24 -148 94 -190 160
-97 152 -98 428 -2 672 33 86 31 115 -20 216 -80 159 -128 339 -140 527 -24
347 -55 639 -116 1110 -5 44 -13 100 -16 125 -3 25 -14 104 -25 175 -11 72
-24 180 -29 240 -6 61 -17 146 -25 190 -8 44 -16 105 -17 137 -2 31 -7 54 -12
51 -4 -3 -5 12 -2 33 7 41 -11 198 -69 589 -19 132 -42 287 -51 345 -8 58 -35
220 -60 360 -24 140 -45 262 -45 270 -2 23 -24 139 -81 428 -36 188 -55 262
-64 262 -8 0 -15 5 -15 10 -1 6 -2 15 -3 21 -4 34 -91 54 -103 23z m124 -101
c-3 -10 -5 -4 -5 12 0 17 2 24 5 18 2 -7 2 -21 0 -30z m10 -55 c-3 -8 -6 -5
-6 6 -1 11 2 17 5 13 3 -3 4 -12 1 -19z m120 -690 c-3 -8 -6 -5 -6 6 -1 11 2
17 5 13 3 -3 4 -12 1 -19z m42 -238 c-1 -14 -7 4 -14 40 -18 85 -17 123 1 45
7 -33 13 -71 13 -85z m111 -670 c22 -140 45 -285 51 -321 7 -36 10 -72 7 -79
-4 -13 -22 91 -63 360 -8 52 -35 219 -60 371 -25 152 -45 285 -44 295 1 24 57
-295 109 -626z m-293 -222 c-3 -8 -6 -5 -6 6 -1 11 2 17 5 13 3 -3 4 -12 1
-19z m360 -245 c-3 -10 -5 -2 -5 17 0 19 2 27 5 18 2 -10 2 -26 0 -35z m10
-55 c-3 -7 -5 -2 -5 12 0 14 2 19 5 13 2 -7 2 -19 0 -25z m-360 -10 c-3 -8 -6
-5 -6 6 -1 11 2 17 5 13 3 -3 4 -12 1 -19z m20 -150 c-3 -8 -6 -5 -6 6 -1 11
2 17 5 13 3 -3 4 -12 1 -19z m397 -380 c3 -24 14 -108 25 -188 11 -80 25 -192
31 -250 14 -135 18 -167 31 -270 11 -87 19 -187 38 -460 26 -360 35 -427 90
-660 22 -92 26 -114 42 -205 14 -80 34 -121 61 -129 16 -4 19 -9 11 -14 -6 -4
-13 -29 -14 -55 -2 -26 -6 -47 -11 -47 -4 0 -5 -7 -2 -15 4 -8 2 -15 -4 -15
-5 0 -15 -14 -22 -30 -20 -47 -23 -28 -6 31 14 47 14 106 -1 131 -15 27 -53
-43 -66 -122 -4 -22 -4 -21 -5 5 -1 39 20 118 37 139 11 13 12 24 2 55 -6 21
-11 57 -11 81 0 40 -1 42 -25 36 -29 -7 -38 8 -50 89 -4 27 -18 79 -31 114
-13 35 -22 66 -20 69 3 2 8 -7 11 -21 4 -15 13 -31 21 -38 12 -9 14 -5 14 29
0 22 -7 72 -16 111 -14 60 -21 74 -44 86 -16 8 -38 29 -51 47 -22 33 -22 33
16 -4 20 -21 41 -38 45 -38 11 0 23 37 16 49 -4 5 0 12 6 15 10 5 10 7 -1 12
-10 5 -11 8 -1 14 19 12 -6 97 -31 105 -11 4 -24 15 -30 26 -7 13 -15 17 -22
12 -23 -18 -61 -9 -74 17 -11 22 -10 25 8 28 11 2 31 -4 45 -12 22 -15 26 -15
49 0 14 9 25 21 25 26 0 5 4 6 10 3 11 -7 8 146 -5 277 -6 58 -11 75 -21 71
-8 -3 -14 0 -14 6 0 6 7 11 15 11 14 0 14 39 -1 108 -2 12 -9 68 -14 124 -10
103 -36 218 -50 218 -5 0 -11 -6 -13 -12 -3 -7 -6 -4 -7 7 -1 17 -3 16 -16 -7
-20 -38 -28 -36 -9 2 9 17 20 28 24 26 10 -7 4 100 -9 137 -6 17 -6 37 0 53
21 55 7 192 -22 224 -17 18 -22 19 -35 8 -15 -12 -15 -11 -2 10 10 15 23 22
46 22 30 0 32 -2 37 -42z m-134 -207 c0 -6 -4 -13 -10 -16 -5 -3 -10 1 -10 9
0 9 5 16 10 16 6 0 10 -4 10 -9z m90 -11 c0 -5 -2 -10 -4 -10 -3 0 -8 5 -11
10 -3 6 -1 10 4 10 6 0 11 -4 11 -10z m-223 -442 c-3 -8 -6 -5 -6 6 -1 11 2
17 5 13 3 -3 4 -12 1 -19z m149 -124 c-6 -16 -8 -16 -16 -4 -6 8 -10 24 -10
35 0 18 1 18 16 3 10 -10 14 -23 10 -34z m-139 -46 c-2 -18 -4 -6 -4 27 0 33
2 48 4 33 2 -15 2 -42 0 -60z m73 54 c0 -20 -29 -64 -30 -45 0 6 5 15 10 18 6
4 8 15 5 26 -4 11 -2 19 4 19 6 0 11 -8 11 -18z m-30 -12 c0 -5 -2 -10 -4 -10
-3 0 -8 5 -11 10 -3 6 -1 10 4 10 6 0 11 -4 11 -10z m100 -35 c0 -8 -2 -15 -4
-15 -2 0 -6 7 -10 15 -3 8 -1 15 4 15 6 0 10 -7 10 -15z m-34 -30 c-1 -21 -6
-25 -33 -25 -27 0 -33 -4 -33 -21 0 -11 -4 -18 -8 -15 -4 3 -6 21 -4 41 4 33
6 35 21 21 23 -21 28 -20 34 4 7 29 25 25 23 -5z m84 -8 c0 -5 -4 -5 -10 -2
-5 3 -10 14 -10 23 0 15 2 15 10 2 5 -8 10 -19 10 -23z m-180 -37 c0 -5 -4
-10 -10 -10 -5 0 -10 5 -10 10 0 6 5 10 10 10 6 0 10 -4 10 -10z m130 -10 c0
-5 -17 -9 -37 -9 l-38 2 35 7 c19 4 36 8 38 9 1 0 2 -3 2 -9z m70 6 c0 -3 -4
-8 -10 -11 -5 -3 -10 -1 -10 4 0 6 5 11 10 11 6 0 10 -2 10 -4z m-80 -46 c-19
-4 -42 -10 -51 -14 -10 -5 -19 -1 -22 8 -5 13 3 16 51 15 51 -1 53 -2 22 -9z
m87 4 c-3 -3 -12 -4 -19 -1 -8 3 -5 6 6 6 11 1 17 -2 13 -5z m-107 -39 c10
-12 10 -15 -4 -15 -9 0 -16 7 -16 15 0 8 2 15 4 15 2 0 9 -7 16 -15z m33 -51
c-7 -18 -19 -18 -26 0 -7 18 1 26 18 19 8 -2 11 -11 8 -19z m204 -131 c-3 -10
-5 -4 -5 12 0 17 2 24 5 18 2 -7 2 -21 0 -30z m-350 -45 c14 -11 29 -56 38
-114 5 -35 3 -45 -15 -62 -19 -18 -26 -19 -49 -9 -14 6 -29 15 -32 20 -3 5
-10 9 -15 10 -5 1 -8 8 -7 15 0 8 -7 22 -18 33 -17 17 -17 22 -4 59 8 23 14
44 14 48 -1 4 -1 10 0 14 1 10 73 -1 88 -14z m167 -84 c3 -8 2 -12 -4 -9 -6 3
-10 10 -10 16 0 14 7 11 14 -7z m16 -69 c14 -19 14 -19 -2 -6 -10 7 -18 18
-18 24 0 6 1 8 3 6 1 -2 9 -13 17 -24z m39 -55 c3 -3 19 -32 34 -65 16 -33 24
-55 19 -50 -19 20 -72 127 -71 143 1 13 3 12 6 -3 3 -11 8 -22 12 -25z m-269
-16 c0 -2 -9 -4 -21 -4 -11 0 -18 4 -14 10 5 8 35 3 35 -6z m234 -76 c51 -80
113 -209 141 -292 56 -165 82 -423 65 -639 -9 -126 -46 -317 -77 -400 -8 -23
-19 -55 -23 -72 -5 -16 -29 -79 -54 -138 -71 -168 -145 -403 -166 -529 -12
-68 -29 -86 -48 -52 -5 10 -26 18 -53 21 -93 9 -86 -3 -94 145 -9 192 -30 342
-71 513 -89 378 -93 404 -70 540 20 117 111 408 172 553 83 194 205 402 236
402 4 0 23 -24 42 -52z m126 -84 c21 -49 26 -70 9 -41 -17 29 -40 87 -34 87 3
0 15 -21 25 -46z m-410 28 c0 -5 12 -13 28 -19 l27 -11 -28 -1 c-32 -1 -57
-21 -57 -45 0 -9 -5 -16 -12 -16 -9 0 -9 -3 -1 -11 9 -9 7 -22 -9 -53 -12 -23
-45 -113 -73 -201 -29 -88 -59 -178 -68 -200 -8 -22 -23 -68 -32 -102 -10 -35
-22 -63 -27 -63 -4 0 -8 1 -8 3 0 6 89 282 124 386 20 58 36 113 36 123 0 10
5 18 11 18 5 0 7 5 4 10 -13 22 51 190 73 190 6 0 12 -4 12 -8z m21 -105 c-10
-9 -11 -8 -5 6 3 10 9 15 12 12 3 -3 0 -11 -7 -18z m429 -22 c0 -5 -5 -3 -10
5 -5 8 -10 20 -10 25 0 6 5 3 10 -5 5 -8 10 -19 10 -25z m-457 -40 c-3 -9 -8
-14 -10 -11 -3 3 -2 9 2 15 9 16 15 13 8 -4z m-53 -123 c0 -5 -7 -17 -15 -28
-14 -18 -14 -17 -4 9 12 27 19 34 19 19z m-32 -88 c-7 -15 -14 -21 -16 -15 -2
7 2 18 8 26 18 22 21 18 8 -11z m-32 -71 c-8 -15 -15 -25 -16 -21 0 12 23 58
27 54 3 -2 -2 -17 -11 -33z m-53 -138 c-3 -9 -8 -14 -10 -11 -3 3 -2 9 2 15 9
16 15 13 8 -4z m-99 -193 c-7 -43 -24 -67 -24 -35 0 38 12 83 22 77 5 -3 6
-22 2 -42z m826 -99 c-6 -32 -8 -26 -8 32 0 53 2 62 8 38 4 -17 4 -49 0 -70z
m51 -20 c-6 -37 -15 -118 -20 -179 -6 -60 -15 -123 -21 -139 -18 -49 -34 -14
-37 87 -3 83 -2 91 10 69 19 -31 23 -21 37 79 13 96 29 165 37 157 3 -3 0 -36
-6 -74z m-61 -70 c-4 -42 -5 -44 -8 -15 -3 30 2 62 10 62 2 0 1 -21 -2 -47z
m-890 -18 c-7 -8 -9 -19 -5 -25 4 -6 -4 -10 -19 -10 -14 0 -26 5 -26 10 0 6 6
10 14 10 7 0 16 9 19 21 3 12 10 18 17 14 8 -5 8 -10 0 -20z m-20 -85 c0 -5
-2 -10 -4 -10 -3 0 -8 5 -11 10 -3 6 -1 10 4 10 6 0 11 -4 11 -10z m-610 -15
c0 -15 -60 -82 -70 -78 -3 2 -5 -4 -5 -12 0 -8 -6 -20 -13 -27 -11 -11 -12
-10 -6 6 5 13 4 17 -4 12 -7 -4 -12 -13 -12 -20 0 -7 -6 -21 -14 -32 -13 -17
-14 -16 -7 16 13 54 19 63 51 85 17 11 30 27 30 36 0 21 9 29 32 29 10 0 18
-7 18 -15z m300 -5 c11 -7 5 -10 -23 -10 -23 0 -36 4 -32 10 8 13 35 13 55 0z
m-73 -6 c-3 -3 -12 -4 -19 -1 -8 3 -5 6 6 6 11 1 17 -2 13 -5z m176 -1 c-7 -2
-19 -2 -25 0 -7 3 -2 5 12 5 14 0 19 -2 13 -5z m-276 -36 c-21 -9 -21 -10 -3
-16 15 -6 10 -11 -28 -25 -54 -21 -131 -92 -175 -162 -29 -44 -31 -46 -31 -21
0 29 46 127 77 163 20 23 70 58 87 60 25 3 56 17 56 25 0 5 9 4 20 -3 19 -12
19 -13 -3 -21z m363 -18 c103 -16 152 -55 220 -172 108 -185 113 -412 16 -617
-17 -36 -38 -72 -46 -81 -57 -63 -95 -99 -105 -99 -6 0 -16 -5 -22 -11 -28
-28 -149 -59 -233 -60 -57 0 -78 -3 -65 -9 11 -5 34 -9 52 -9 34 -1 57 -20 26
-22 -10 0 5 -7 32 -14 70 -18 21 -18 -88 0 -69 11 -106 24 -175 62 -84 46
-173 117 -194 156 -10 19 -9 19 22 1 17 -11 57 -40 87 -66 54 -45 164 -99 201
-97 12 0 10 3 -8 11 l-25 11 25 7 c23 7 24 8 5 15 -11 4 -40 16 -64 26 -24 10
-47 16 -52 14 -32 -21 -153 108 -202 215 -50 110 -48 302 4 399 10 20 19 41
19 49 0 25 63 124 107 168 69 69 214 132 273 120 16 -3 32 -1 35 4 8 13 74 13
155 -1z m1037 -131 c-3 -8 -6 -5 -6 6 -1 11 2 17 5 13 3 -3 4 -12 1 -19z
m-1677 -68 c-19 -38 -35 -68 -38 -66 -5 6 27 98 44 124 31 47 27 10 -6 -58z
m1660 31 c0 -21 10 -70 21 -107 27 -86 34 -147 16 -141 -6 2 -12 15 -13 28 -1
13 -2 27 -4 32 -1 4 -3 13 -4 20 0 6 -11 13 -24 15 -18 3 -26 -3 -35 -27 -6
-17 -15 -31 -20 -31 -4 0 -5 5 -2 10 3 6 2 10 -3 10 -6 0 -12 -7 -16 -15 -4
-10 1 -15 14 -15 11 0 20 -4 20 -10 0 -5 -6 -7 -13 -4 -7 2 -21 -10 -31 -27
-18 -31 -123 -180 -133 -189 -14 -12 24 51 69 116 27 39 50 80 52 91 7 35 47
111 62 117 7 3 14 16 14 28 1 61 13 138 21 138 5 0 9 -18 9 -39z m-34 -57 c-4
-9 -9 -15 -11 -12 -3 3 -3 13 1 22 4 9 9 15 11 12 3 -3 3 -13 -1 -22z m-659
-116 c-3 -8 -6 -5 -6 6 -1 11 2 17 5 13 3 -3 4 -12 1 -19z m780 -45 c-4 -3 -2
-12 4 -20 15 -17 -1 -16 -24 1 -14 11 -15 15 -5 19 19 8 32 8 25 0z m103 -23
c8 -5 11 -10 5 -10 -5 0 -17 5 -25 10 -8 5 -10 10 -5 10 6 0 17 -5 25 -10z
m79 -4 c13 0 26 -7 29 -15 4 -11 -3 -13 -28 -8 -18 4 -39 7 -46 7 -8 0 -14 7
-14 16 0 11 5 14 18 9 9 -4 28 -8 41 -9z m-114 -16 l20 -9 -20 0 c-11 0 -27 4
-35 9 -13 9 -13 10 0 9 8 0 24 -4 35 -9z m244 -26 c2 -2 2 -6 0 -9 -8 -7 -49
7 -49 17 0 8 38 2 49 -8z m51 -19 l24 -26 -24 9 c-14 5 -26 17 -28 26 -5 22 0
20 28 -9z m-148 -30 c93 -24 198 -82 250 -137 95 -100 141 -247 120 -384 -23
-147 -72 -250 -163 -341 -43 -43 -64 -53 -71 -31 -3 7 -11 9 -24 4 -12 -6 -15
-10 -6 -13 6 -3 12 -9 12 -15 0 -7 -5 -6 -14 1 -11 10 -20 10 -37 0 l-23 -12
24 -9 25 -9 -32 -20 c-52 -33 -139 -59 -197 -59 -60 0 -154 35 -193 72 -12 11
-32 26 -44 32 -12 6 -30 26 -39 43 -9 18 -20 30 -22 27 -3 -3 -9 7 -12 21 -4
14 -11 23 -16 20 -6 -3 -10 5 -10 19 0 14 -3 26 -7 26 -5 0 -16 19 -25 43 -56
140 -70 320 -31 417 79 199 173 297 308 321 55 10 158 3 227 -16z m213 -23
c-8 -8 -25 10 -19 20 4 6 9 5 15 -3 4 -7 6 -15 4 -17z m35 -2 c0 -5 -2 -10 -4
-10 -3 0 -8 5 -11 10 -3 6 -1 10 4 10 6 0 11 -4 11 -10z m-1223 -97 c-2 -16
-4 -3 -4 27 0 30 2 43 4 28 2 -16 2 -40 0 -55z m-1 -70 c-11 -11 -17 4 -9 23
7 18 8 18 11 1 2 -10 1 -21 -2 -24z m-20 -125 c-12 -33 -26 -37 -26 -8 0 11 5
20 10 20 6 0 10 6 9 13 -1 6 0 23 1 37 2 24 3 23 9 -5 4 -16 2 -42 -3 -57z
m414 21 c0 -5 -4 -9 -10 -9 -5 0 -10 7 -10 16 0 8 5 12 10 9 6 -3 10 -10 10
-16z m-23 -41 c-3 -8 -6 -5 -6 6 -1 11 2 17 5 13 3 -3 4 -12 1 -19z m-10 -50
c-3 -8 -6 -5 -6 6 -1 11 2 17 5 13 3 -3 4 -12 1 -19z m-139 -94 c2 -43 1 -45
-20 -38 -13 4 -31 7 -40 6 -13 0 -18 7 -18 29 0 31 1 32 24 23 8 -3 12 -12 9
-20 -3 -8 -1 -14 5 -14 6 0 13 14 17 30 10 44 22 36 23 -16z m157 -186 c21
-93 17 -108 -6 -23 -11 39 -21 111 -24 160 l-4 90 9 -80 c5 -44 16 -110 25
-147z m-425 176 c0 -8 -4 -12 -10 -9 -5 3 -10 13 -10 21 0 8 5 12 10 9 6 -3
10 -13 10 -21z m98 -54 c0 -9 -3 -7 -8 5 -5 11 -8 29 -8 40 0 16 2 15 8 -5 4
-14 8 -32 8 -40z m9 -212 c-2 -18 -4 -6 -4 27 0 33 2 48 4 33 2 -15 2 -42 0
-60z m1255 0 c-7 -7 -12 -8 -12 -2 0 14 12 26 19 19 2 -3 -1 -11 -7 -17z
m-836 -141 c-3 -11 9 -41 26 -68 31 -51 41 -60 36 -33 -4 25 19 29 27 5 9 -28
103 -109 142 -122 34 -11 45 -29 18 -29 -8 0 -15 -5 -15 -12 0 -7 -17 5 -38
25 -21 21 -41 34 -45 31 -4 -4 -7 -3 -7 3 0 6 -13 16 -30 21 -19 7 -28 16 -24
25 3 8 -3 20 -13 28 -17 13 -17 13 -3 -6 8 -11 0 -7 -17 8 -46 42 -112 176
-105 213 5 29 6 28 29 -21 13 -27 21 -58 19 -68z m125 -204 c13 -16 12 -17 -3
-4 -17 13 -22 21 -14 21 2 0 10 -8 17 -17z m49 -63 c0 -5 6 -10 14 -10 8 0 21
-21 30 -47 21 -62 20 -67 -6 -18 -11 22 -30 50 -41 63 -11 12 -15 22 -9 22 7
0 12 -4 12 -10z"/>
<path d="M1518 2973 c12 -2 32 -2 45 0 12 2 2 4 -23 4 -25 0 -35 -2 -22 -4z"/>
<path d="M1395 2960 c-25 -11 1 -11 35 0 20 6 21 8 5 8 -11 0 -29 -3 -40 -8z"/>
<path d="M1330 2930 c-9 -6 -10 -10 -3 -10 6 0 15 5 18 10 8 12 4 12 -15 0z"/>
<path d="M1290 2910 c-9 -6 -10 -10 -3 -10 6 0 15 5 18 10 8 12 4 12 -15 0z"/>
<path d="M1191 2825 c-29 -33 -36 -45 -28 -45 2 0 18 18 36 40 40 49 34 53 -8
5z"/>
<path d="M1066 2602 c-28 -85 -41 -261 -20 -282 7 -7 10 30 10 102 -1 85 4
126 18 166 10 29 16 56 13 58 -3 3 -12 -17 -21 -44z"/>
<path d="M1058 2295 c-3 -4 1 -20 9 -36 8 -17 17 -28 19 -26 2 2 -2 18 -9 36
-7 17 -16 29 -19 26z"/>
<path d="M2171 4874 c0 -11 3 -14 6 -6 3 7 2 16 -1 19 -3 4 -6 -2 -5 -13z"/>
<path d="M2320 4482 c0 -5 6 -16 13 -26 13 -18 14 -18 21 -1 4 11 1 22 -6 27
-17 10 -28 10 -28 0z"/>
<path d="M3265 2450 c-3 -5 -1 -10 4 -10 6 0 11 5 11 10 0 6 -2 10 -4 10 -3 0
-8 -4 -11 -10z"/>
<path d="M891 680 c0 -29 1 -32 10 -17 7 11 7 23 0 35 -9 14 -10 11 -10 -18z"/>
<path d="M3320 640 c8 -5 20 -10 25 -10 6 0 3 5 -5 10 -8 5 -19 10 -25 10 -5
0 -3 -5 5 -10z"/>
</g>
</svg>
